# xmcd
#
# Track frame offsets:
#	150
#	10205
#	26780
#	35702
#	50435
#	58672
#	66830
#	79945
#	89012
#	105250
#
# Disc length: 1559 seconds
#
# Revision: 0
# Processed by: cddbd v1.5.2PL0 Copyright (c) Steve Scherf et al.
# Submitted via: EasyCDDAExtractor 10.0.6.1
#
DISCID=8206150a
DTITLE=Smoky Mountain Boys - Sing A Happy Song Of Praise
DYEAR=1900
DGENRE=Gospel
TTITLE0=Happy Song Of Praise
TTITLE1=Keep Looking Beyond
TTITLE2=Family Altar
TTITLE3=I've Gor A Mansion
TTITLE4=Everybody's Gonna Have A Wonderful Time Up There
TTITLE5=When I Met The Lord
TTITLE6=In Gloryland
TTITLE7=I Can Call Jesus Anytime
TTITLE8=Tired Of Sin
TTITLE9=Lead Us Safely
EXTD=
EXTT0=
EXTT1=
EXTT2=
EXTT3=
EXTT4=
EXTT5=
EXTT6=
EXTT7=
EXTT8=
EXTT9=
PLAYORDER=
